<?xml version="1.0" encoding="utf-8"?>
<!-- Generator: Adobe Illustrator 17.0.0, SVG Export Plug-In . SVG Version: 6.00 Build 0)  -->
<!DOCTYPE svg PUBLIC "-//W3C//DTD SVG 1.1//EN" "http://www.w3.org/Graphics/SVG/1.1/DTD/svg11.dtd">
<svg version="1.1" id="Layer_1" xmlns="http://www.w3.org/2000/svg" xmlns:xlink="http://www.w3.org/1999/xlink" x="0px" y="0px"
	 width="671.6px" height="208.66px" viewBox="0 0 671.6 208.66" enable-background="new 0 0 671.6 208.66" xml:space="preserve">
<path fill-rule="evenodd" clip-rule="evenodd" fill="#6D6E70" d="M125.731,188.617c2.984,3.154,5.348,5.214,10.439,5.361
	c2.841,0.081,7.701-1.136,10.884-2.754C139.893,190.644,132.889,188.858,125.731,188.617 M112.585,181.779l3.188,0.008
	c-0.078-0.276,0.012-0.652,0.139-1.008C114.416,180.702,113.52,180.902,112.585,181.779z M88.939,183.229l2.115,0.824
	c5.586,1.08,11.952-0.687,16.862-3.799c-2.744,0.681-5.473,1.626-8.218,2.215C96.425,183.171,92.573,183.223,88.939,183.229z
	 M123.862,68.037c0.005,0.011,0.009,0.021,0.014,0.032c0.035,0.003,0.072,0.005,0.11,0.006
	C123.947,68.062,123.906,68.05,123.862,68.037z M109.926,64.032c1.037,0.379,2.005,0.832,3.042,1.328
	c1.904,0.913,3.427,1.458,5.421,1.767l0.129-1.904C114.255,62.569,114.05,60.927,109.926,64.032z M118.839,60.604
	c-0.167-0.003-0.336-0.004-0.498-0.003c-0.024,0.098-0.065,0.194-0.123,0.288c0.15-0.063,0.289-0.128,0.362-0.164
	C118.66,60.686,118.748,60.645,118.839,60.604z M42.773,127.182c-1.85-23.515-1.891-48.476,17.338-65.418
	c1.129-0.995,2.399-1.847,3.579-2.78c-10.446,1.102-20.852,8.209-24.544,18.127c-1.056,2.837-2.568,9.332-2.569,12.318
	C36.573,99.033,38.175,117.221,42.773,127.182z M107.518,59.746c-3.476-1.751-9.148-3.028-12.491-3.627
	c-2.46-0.441-9.829-1.524-13.644-0.491c4.49,0.48,8.84,1.303,13.186,2.685c2.386,0.759,5.408,2.071,7.864,2.31
	C104.231,60.798,105.896,60.396,107.518,59.746z M167.208,53.393c-11.947-4.039-26.199-1.271-37.626,3.113
	c-0.594,0.228-4.447,1.677-5.094,2.253c0.193,0.503,0.528,0.708,0.624,1.558c0.07,0.614-0.054,1.248-0.282,1.861
	c0.413-0.283,0.777-0.542,0.981-0.68c2.101-1.423,4.211-2.729,6.478-3.879c7.611-3.862,15.856-5.54,24.365-5.62
	C160.14,51.967,163.691,52.873,167.208,53.393z M27.267,24.766c5.067,1.013,10.826,0.85,15.765,0.508
	c7.625-0.529,15.25-1.657,22.836-2.598c11.002-1.365,24.726-2.957,35.556-0.238c2.96,0.743,4.898,1.83,7.308,2.939
	c-9.15-18.944-46.361-8.599-61.682-4.769c-3.61,0.902-7.465,1.573-11.122,2.326c-2.468,0.507-4.937,1.017-7.397,1.564
	C28.249,24.561,27.783,24.655,27.267,24.766z M125.113,20.93l0.852,1.265c0.193,0.287,0.392,0.595,0.591,0.86l0.277,0.355
	c1.517-4.475,5.458-9.437,8.134-13.312c-2.896-1.276-6.204-2.011-9.233-2.991c-1.387,3.603-0.542,7.802-0.592,11.608L125.113,20.93z
	 M215.551,145.968c-0.055-0.459,0.252-1.042,0.384-1.376c0.09-0.228,0.183-0.456,0.279-0.681c0.035-0.082,0.071-0.164,0.109-0.244
	c0.018-0.038,0.037-0.075,0.058-0.111c0.08-0.138,0.201-0.247,0.34-0.313l1.705-3.258l-0.113,3.216
	c-0.855,24.221-21.017,44.718-44.754,47.868c-4.663,0.618-8.611,0.458-13.237,0.535c-2.171,0.036-5.57,1.423-7.624,2.189
	c-3.515,1.312-7.034,2.609-10.725,3.341c-6.399,1.269-12.442,0.617-17.516-3.884c-1.146-1.017-1.95-2.206-2.915-3.371
	c-1.426-1.72-2.783-2.616-5.026-2.993c-3.999-0.674-9.594,0.653-13.433,1.697c-7.381,2.006-17.444,0.236-24.23-3.109
	c-25.237-12.44-29.293-29.483-38.151-53.854c-3.307-9.097-6.004-18.702-7.21-28.318c-0.946-7.547-1.005-15.504,0.855-22.921
	c1.933-7.709,6.162-13.897,12.703-18.408c5.658-3.903,10.277-5.257,16.995-5.939c2.354-0.239,4.696-0.429,7.028-0.852
	c5.348-0.97,11.197-2.444,16.604-2.699c7.371-0.348,14.622,2.009,21.473,4.473c2.691,0.967,6.281,0.911,8.488-1.128
	c2.039-1.884,1.996-4.696,1.268-7.173c-0.004,0.386-0.066,0.773-0.437,0.992c-0.389,0.23-0.988-0.082-1.733,0.249l-0.721,0.321
	l-0.265-0.744c-0.375-1.054-0.789-2.12-1.303-3.115c-0.248-0.481-0.555-0.952-0.779-1.438c-0.726-1.57-0.639-5.71-0.68-7.411
	c-0.462-19.437-42.222-12.159-53.836-10.928l-19.706,1.831l-0.037-0.001c-1.378-0.012-3.078-0.182-4.601,0.047
	c2.455,0.706,4.849,1.635,7.345,2.243c3.443,0.838,6.957,1.434,10.455,1.991c7.084,1.129,14.142,1.622,21.215,2.601
	c7.916,1.096,14.779,3.084,22.16,6.172c6.572,2.749,10.235,6.689,17.693,7.76l1.709,0.246l-1.365,1.057
	c-3.082,2.386-9.458-0.85-12.417-2.414c-3.679-1.944-6.945-3.62-10.887-5.067c-8.529-3.13-18.12-4.475-27.168-4.795
	c-9.612-0.339-19.05-1.994-28.457-3.891c-4.255-0.858-15.871-3.22-19.069-5.533c-0.415-0.3-1.239-0.652-1.305-1.212
	c-0.046-0.168-0.252-0.488-0.342-0.635c-0.256-0.42-0.731-1.113-0.535-1.632c-0.065-0.081-0.129-0.159-0.19-0.234
	c-2.281-0.328-4.42-0.577-6.708-1.096c-1.906-0.433-6.54-1.528-6.917-3.873c-0.289-1.797,1.942-3.143,3.26-3.844l1.049-0.557
	l0.026,1.187c0.081,3.741,0.065,3.981,3.619,4.901l16.709,0.321c5.577-0.671,11.404-2.239,16.836-3.666
	c6.835-1.795,13.643-3.665,20.549-5.175c13.223-2.889,31.001-5.551,43.121,2.08c10.012,6.305,11.059,15.856,15.57,25.516
	l0.955-2.925c1.427-5.742,2.804-9.248,2.908-15.392l0.036-2.123l-0.869-1.371c-1.727-2.724-2.276-7.958-1.845-11.121
	c0.515-3.787,2.672-5.739,5.654-7.737l0.406-0.272l0.406,0.271c3.898,2.595,3.866,4.349,8.957,6.07
	c4.935,1.668,9.261-2.302,9.27,6.165l0.001,0.732l-0.732,0.001c-2.261,0.001-4.538,0.287-6.512,1.465
	c-3.943,2.353-6.995,9.335-8.966,13.321c-1.797,3.633-3.055,7.399-3.399,11.458c-0.329,3.896,0.033,9.133-1.208,13.002
	c1.111-0.267,2.574-0.734,3.188-0.91c2.67-0.768,5.336-1.54,8.032-2.214c1.888-0.472,3.802-0.905,5.724-1.22
	c6.953-1.138,14.513-0.138,21.276,1.655c6.813,1.806,13.747,4.647,19.819,8.237c3.479,2.057,9.216,5.922,10.953,9.711l0.839,1.83
	l-1.818-0.865c-4.84-2.303-8.386-5.115-12.775-7.984c-3.377-2.207-6.531-3.638-10.489-4.524c-6.109-1.369-13.035-1.267-19.247-0.88
	c-6.931,0.432-20.29,3.976-24.928,9.752c1.735,1.002,4.854,2.849,6.198,2.796c1.487-0.059,4.51-2.35,5.736-3.169l0.689-0.46
	l0.371,0.741c1.02,2.039,1.606,4.446,2.284,6.625l0.162,0.523l-0.456,0.303c-3.789,2.515-4.825,1.993-9.083,0.874l-0.304-0.08
	l-0.151-0.275c-0.132-0.24-0.282-0.609-0.426-0.823c-0.226-0.185-0.527-0.37-0.81-0.557c-3.604,1.598-3.832,2.978-8.786,2.426
	c-2.812-0.313-6.409-1.815-8.926-3.12l-0.048-0.027c-2.001-1.238-8.05-5.315-10.603-4.638c-0.704,0.187-1.459,0.624-2.118,0.943
	c-1.212,0.589-2.402,1.025-3.715,1.346c-5.384,1.318-12.394,0.79-17.83,0.18l-4.709-0.528l15.192-2.992
	c2.831-0.477,5.463-1.451,8.199-2.162c-3.721-1.962-9.63-3.58-13.144-4.29c-3.939-0.797-9.562-1.502-13.434-0.177
	c-6.809,2.328-14.93,11.398-18.387,17.587c-8.867,15.871-9.374,44.781-4.838,62.196c3.91,15.012,17.102,33.984,32.025,39.542
	c8.923,3.323,18.378,1.983,27.248-0.741c3.521-1.081,6.909-2.404,10.378-3.615c1.517-0.529,4.821-1.766,6.363-1.008
	c2.117,1.042,2.004,1.537,0.498,3.029c-0.717,0.71-1.595,1.453-2.676,1.287c-0.77-0.119-1.167-0.498-2.042-0.462
	c-0.92,0.038-2.039,0.496-3.069,1.037c1.546,0.157,3.164,0.493,4.176,1.363c0.968,0.832,1.909,2.611,2.684,3.815
	c7.169,0.542,14.458,2.284,21.6,3.274c2.779,0.385,8.804,1.602,11.488,0.855c2.267-0.63,5.376-3.271,7.251-4.689
	c23.929-18.088,31.43-33.206,34.539-56.924c3.102-23.436,3.424,6.47,0.383,17.226c-3.82,13.508-13.056,27.451-23.621,36.837
	c-3.18,2.824-6.839,5.136-9.969,8.017c25.985-1.142,42.821-14.478,50.389-39.632C215.262,146.997,215.396,146.473,215.551,145.968z"
	/>
<path fill="#817F59" d="M628.235,156.287l-2.247-0.113c0.075-5.074-0.936-11.197-3.033-18.313c0.899-0.262,1.498-0.412,1.798-0.449
	c0.88,2.753,1.573,4.756,2.06,5.992c0.487,1.236,1.123,2.322,1.91,3.258c0.787,0.936,1.872,1.779,3.277,2.509
	c2.378,1.255,5.112,2.378,8.22,3.371c3.108,0.992,6.46,1.498,10.037,1.498c3.109,0,6.235-0.768,9.363-2.303
	c3.127-1.535,4.681-4.924,4.681-10.149c0-2.64-0.449-4.906-1.367-6.797c-0.918-1.91-2.116-3.445-3.595-4.625
	c-1.479-1.161-3.202-2.21-5.168-3.127c-1.948-0.899-4.476-1.947-7.583-3.127c-4.326-1.573-7.883-3.183-10.673-4.831
	c-2.809-1.648-5.018-3.67-6.666-6.086c-1.648-2.415-2.471-5.355-2.471-8.838c0-5.524,2.022-10.13,6.085-13.8
	c4.063-3.689,9.849-5.524,17.377-5.524c3.839,0,7.621,0.412,11.347,1.236c1.498,0.3,2.434,0.449,2.79,0.449
	c1.105,0,2.191-0.374,3.295-1.124l0.45-0.224c0.299,0,0.674,0.075,1.123,0.224c-0.112,0.843-0.206,1.667-0.3,2.491
	c-0.094,0.824-0.187,1.723-0.281,2.715c-0.094,0.993-0.15,1.76-0.187,2.303c-0.037,0.543-0.075,0.918-0.112,1.105
	c0.468,4.419,0.693,6.835,0.656,7.228l-1.685,0.112c-0.3-3.726-1.517-6.647-3.67-8.782c-2.154-2.116-4.588-3.576-7.284-4.344
	c-2.715-0.768-5.299-1.143-7.789-1.143c-6.067,0-10.074,1.573-12.021,4.738c-1.966,3.165-2.94,6.142-2.94,8.969
	c0,2.958,0.73,5.412,2.191,7.359c1.46,1.947,3.296,3.483,5.468,4.588c2.172,1.105,5.243,2.415,9.194,3.951
	c4.457,1.742,8.033,3.352,10.729,4.831c2.696,1.479,5.112,3.633,7.228,6.441c2.116,2.809,3.165,6.273,3.165,10.411
	c0,3.52-0.917,6.704-2.734,9.512c-1.835,2.827-4.569,5.074-8.239,6.722c-3.651,1.648-8.126,2.472-13.426,2.472
	c-5.149,0-10.505-0.749-16.066-2.266c-0.992-0.225-1.591-0.318-1.798-0.318C628.385,154.489,628.01,155.088,628.235,156.287
	 M613.167,140.22h1.686c-0.581,3.802-1.217,6.966-1.929,9.475c-0.693,2.49-1.573,4.887-2.678,7.153
	c-1.198-0.131-2.846-0.243-4.943-0.3c-2.078-0.075-5-0.112-8.763-0.112c-2.284,0-4.7-0.037-7.303-0.131
	c-2.603-0.093-3.708-0.131-3.352-0.131c-2.378,0-5.149,0.019-8.314,0.075c-3.165,0.037-6.966,0.131-11.441,0.262
	c-4.457,0.131-7.733,0.244-9.812,0.337l0.112-1.91c1.142-0.262,2.284-0.543,3.464-0.843c1.18-0.318,1.966-0.655,2.397-1.011
	c0.412-0.374,0.712-0.824,0.899-1.348c0.187-0.524,0.375-1.479,0.543-2.865c0.225-1.386,0.449-3.895,0.655-7.508
	c0.206-3.633,0.374-7.696,0.506-12.209c0.131-4.531,0.168-7.34,0.131-8.482l-0.356-17.358c-0.094-5.393-0.3-9.044-0.618-10.935
	c-0.318-1.891-0.918-3.146-1.797-3.764c-0.88-0.637-2.565-1.18-5.037-1.648c0-0.599,0.038-1.086,0.112-1.461h35.147
	c3.951,0,9.905-0.15,17.882-0.449c-0.187,3.146-0.505,6.292-0.974,9.437c-0.468,3.146-1.086,4.719-1.816,4.719
	c-0.918,0-1.367-0.281-1.367-0.824c0-0.225,0.075-0.918,0.225-2.079c0.15-1.18,0.206-1.854,0.206-2.023
	c0-2.677-1.592-4.381-4.794-5.112c-3.202-0.73-7.022-1.086-11.497-1.086c-5.374,0-10.973,0.375-16.833,1.123
	c-0.674,6.067-1.011,11.16-1.011,15.298c0,2.696,0.019,5.805,0.056,9.325c0.037,3.502,0.056,5.149,0.056,4.925
	c0.88,0.075,3.557,0.112,8.07,0.112c7.752,0,13.07-0.15,15.953-0.449c1.648-0.169,2.753-0.393,3.333-0.656
	c0.562-0.243,1.105-0.899,1.611-1.947c0.524-1.049,1.086-2.64,1.704-4.812l1.573,0.112c0,3.783,0,7.172-0.019,10.168
	c-0.019,2.996-0.056,6.423-0.094,10.28h-1.91c-0.113-3.371-0.618-5.711-1.517-7.041c-0.88-1.311-2.622-2.153-5.168-2.528
	c-2.565-0.356-7.116-0.543-13.669-0.543c-4.195,0-7.49,0.187-9.868,0.543l-0.225,7.827c-0.262,9.531,0.075,16.89,1.011,22.058
	c0.655,0.187,1.442,0.374,2.359,0.6c0.917,0.225,1.779,0.393,2.603,0.524c0.824,0.131,2.003,0.262,3.539,0.394
	c1.535,0.131,3.464,0.187,5.767,0.187c5.73,0,10.242-0.412,13.52-1.255c3.276-0.843,5.767-2.191,7.508-4.063
	C610.433,146.419,611.931,143.722,613.167,140.22z M536.513,120.092c0-6.966-1.648-12.939-4.925-17.939
	c-3.295-5-7.49-8.782-12.62-11.347c-5.112-2.565-10.355-3.839-15.729-3.839c-5.262,0-10.018,0.955-14.25,2.865
	c-0.374,2.041-0.655,8.145-0.842,18.332c-0.187,10.168-0.281,18.95-0.281,26.29c0,0.3,0.019,1.685,0.075,4.119
	c0.056,2.453,0.112,4.944,0.168,7.453c0.056,2.509,0.094,3.932,0.094,4.307c3.689,1.18,6.516,2.004,8.501,2.453
	c1.966,0.468,4.457,0.693,7.453,0.693c7.565,0,13.781-1.648,18.612-4.925c4.85-3.276,8.351-7.452,10.504-12.546
	C535.427,130.914,536.513,125.615,536.513,120.092z M472.362,88.315l-0.112-2.135c9.793,0,18.051-0.393,24.736-1.198
	c2.49-0.318,5.056-0.487,7.733-0.487c5.449,0,10.655,0.805,15.617,2.434c4.981,1.629,9.4,3.988,13.276,7.059
	c3.876,3.071,6.928,6.797,9.138,11.216c2.21,4.4,3.314,9.344,3.314,14.83c0,6.647-1.704,12.714-5.131,18.201
	c-3.408,5.486-8.295,9.812-14.643,12.976c-6.348,3.164-13.575,4.737-21.683,4.737c-0.487,0-1.929-0.037-4.344-0.112
	c-2.415-0.075-3.82-0.113-4.213-0.113c-1.423,0-2.697,0-3.82,0.019c-1.105,0.019-2.734,0.056-4.887,0.094
	c-2.135,0.037-4.176,0.075-6.142,0.131c-1.947,0.056-3.296,0.094-4.026,0.094l-5.374-0.112v-2.134c3.895,0,6.254-0.862,7.059-2.565
	c0.918-2.004,1.367-11.085,1.367-27.226c0-10.729-0.131-18.706-0.393-23.987c-0.262-5.262-0.768-8.539-1.535-9.812
	C477.361,88.84,475.376,88.203,472.362,88.315z M432.802,87.417v-2.359c4.138,0.225,6.704,0.374,7.733,0.449
	c3.726,0.15,6.235,0.225,7.527,0.225c0.431,0,2.34-0.075,5.692-0.225c3.371-0.15,6.535-0.3,9.493-0.449v2.584
	c-3.221,0-5.411,0.169-6.572,0.525c-1.18,0.337-2.06,1.03-2.64,2.06c-1.198,2.303-1.798,11.123-1.798,26.44
	c0,10.561,0.019,17.227,0.038,20.036c0.019,2.809,0.112,5.805,0.262,8.988c0.094,2.565,0.319,4.382,0.637,5.449
	c0.318,1.067,1.198,1.854,2.641,2.397c1.46,0.524,3.782,0.805,6.984,0.843l-0.224,2.135c-0.506,0-1.517-0.037-3.033-0.094
	c-1.517-0.056-3.09-0.094-4.719-0.131s-2.883-0.075-3.763-0.094c-0.88-0.019-1.891-0.019-3.015-0.019c-1.61,0-2.958,0-4.045,0.019
	c-1.067,0.019-2.509,0.056-4.306,0.094c-1.779,0.037-3.408,0.075-4.85,0.131c-1.442,0.056-2.303,0.094-2.603,0.094l-0.112-2.135
	c3.97-0.225,6.647-0.674,8.033-1.367c1.404-0.693,2.359-1.816,2.865-3.352c0.73-1.984,1.179-5.711,1.385-11.216
	c0.206-5.524,0.3-11.329,0.3-17.433c0-5.524-0.169-13.464-0.524-23.818c-0.094-2.865-0.374-4.906-0.843-6.123
	c-0.449-1.236-1.479-2.135-3.071-2.715C438.663,87.772,436.172,87.454,432.802,87.417z M369.311,118.762
	c2.453,0.599,5.43,0.899,8.932,0.899c1.76,0,3.614-0.131,5.58-0.374c1.966-0.262,3.988-0.824,6.067-1.704
	c2.06-0.861,3.857-2.341,5.355-4.4c1.517-2.078,2.266-4.85,2.266-8.333c0-2.472-0.655-5.056-1.947-7.771
	c-1.311-2.696-3.314-5.037-6.048-6.965c-2.715-1.947-6.011-2.921-9.905-2.921c-1.611,0-3.445,0.206-5.487,0.618
	c-2.022,0.431-3.221,1.086-3.539,1.985C369.742,91.574,369.311,101.235,369.311,118.762z M387.362,131.663l-6.329-8.969
	c-4.849,0-8.857-0.244-12.059-0.712l-0.112,13.126c0,2.752,0.075,5.861,0.243,9.287c0.169,3.426,0.524,5.842,1.105,7.265
	c0.299,0.88,0.786,1.498,1.498,1.854c0.693,0.374,2.284,0.88,4.719,1.536c0.805,0.187,1.198,0.487,1.198,0.899
	c0,0.824-0.262,1.236-0.768,1.236c-0.581,0-2.116-0.187-4.588-0.562c-3.127-0.3-5.037-0.45-5.73-0.45
	c-3.539,0-7.19,0.262-10.935,0.787c-0.262,0-0.562,0.037-0.936,0.112c-0.73,0-1.086-0.337-1.086-1.011
	c0-0.374,0.131-0.655,0.412-0.843c0.281-0.187,0.899-0.412,1.835-0.655c1.667-0.45,2.847-1.105,3.577-2.004
	c0.749-0.899,1.273-2.659,1.61-5.261c0.319-2.603,0.506-6.797,0.543-12.565v-24.211c0.075-5.898,0.056-10.242-0.056-13.014
	c-0.112-2.79-0.412-4.812-0.88-6.123c-0.487-1.292-1.217-2.153-2.228-2.584c-0.992-0.45-2.565-0.786-4.7-1.049l0.224-1.798
	c1.947,0.075,4.419,0.113,7.415,0.113c0.88,0,4.082-0.225,9.606-0.674c5.505-0.449,9.007-0.674,10.467-0.674
	c3.857,0,7.322,0.524,10.392,1.591c3.09,1.068,5.655,2.472,7.733,4.213c2.06,1.76,3.633,3.764,4.7,6.011
	c1.067,2.247,1.592,4.569,1.592,6.947c0,2.434-0.543,4.812-1.648,7.115c-1.105,2.303-2.753,4.4-4.999,6.292
	c-2.228,1.873-5.093,3.483-8.613,4.794l2.509,3.707c3.483,5.187,6.367,9.363,8.67,12.546c2.284,3.183,4.719,6.273,7.302,9.231
	c2.584,2.977,5.206,5.393,7.883,7.247c2.697,1.854,5.318,2.884,7.864,3.108c0.693,0.112,1.03,0.487,1.03,1.123
	c0,0.337-0.169,0.581-0.487,0.749c-0.337,0.169-1.105,0.262-2.34,0.262c-3.539,0-6.928-0.786-10.205-2.359
	c-3.277-1.554-6.385-3.67-9.325-6.329c-2.958-2.659-5.58-5.43-7.883-8.314C393.26,139.79,390.526,136.12,387.362,131.663z
	 M343.682,140.22h1.685c-0.58,3.802-1.217,6.966-1.928,9.475c-0.693,2.49-1.573,4.887-2.678,7.153
	c-1.198-0.131-2.846-0.243-4.943-0.3c-2.078-0.075-4.999-0.112-8.763-0.112c-2.284,0-4.699-0.037-7.302-0.131
	c-2.603-0.093-3.708-0.131-3.352-0.131c-2.378,0-5.149,0.019-8.314,0.075c-3.165,0.037-6.966,0.131-11.441,0.262
	c-4.457,0.131-7.734,0.244-9.812,0.337l0.113-1.91c1.142-0.262,2.284-0.543,3.464-0.843c1.18-0.318,1.966-0.655,2.397-1.011
	c0.412-0.374,0.711-0.824,0.899-1.348c0.187-0.524,0.374-1.479,0.543-2.865c0.225-1.386,0.449-3.895,0.655-7.508
	c0.206-3.633,0.375-7.696,0.506-12.209c0.131-4.531,0.168-7.34,0.131-8.482l-0.356-17.358c-0.093-5.393-0.3-9.044-0.618-10.935
	c-0.318-1.891-0.918-3.146-1.798-3.764c-0.88-0.637-2.565-1.18-5.037-1.648c0-0.599,0.037-1.086,0.112-1.461h35.146
	c3.951,0,9.906-0.15,17.882-0.449c-0.187,3.146-0.506,6.292-0.974,9.437c-0.468,3.146-1.086,4.719-1.816,4.719
	c-0.917,0-1.367-0.281-1.367-0.824c0-0.225,0.075-0.918,0.225-2.079c0.15-1.18,0.206-1.854,0.206-2.023
	c0-2.677-1.592-4.381-4.794-5.112c-3.202-0.73-7.022-1.086-11.497-1.086c-5.374,0-10.973,0.375-16.833,1.123
	c-0.674,6.067-1.011,11.16-1.011,15.298c0,2.696,0.019,5.805,0.056,9.325c0.037,3.502,0.056,5.149,0.056,4.925
	c0.88,0.075,3.557,0.112,8.071,0.112c7.752,0,13.07-0.15,15.953-0.449c1.648-0.169,2.753-0.393,3.333-0.656
	c0.562-0.243,1.105-0.899,1.61-1.947c0.524-1.049,1.086-2.64,1.704-4.812l1.573,0.112c0,3.783,0,7.172-0.019,10.168
	c-0.019,2.996-0.056,6.423-0.094,10.28h-1.91c-0.112-3.371-0.618-5.711-1.517-7.041c-0.88-1.311-2.622-2.153-5.168-2.528
	c-2.565-0.356-7.115-0.543-13.669-0.543c-4.194,0-7.49,0.187-9.868,0.543l-0.225,7.827c-0.262,9.531,0.075,16.89,1.011,22.058
	c0.655,0.187,1.442,0.374,2.359,0.6c0.918,0.225,1.779,0.393,2.603,0.524c0.824,0.131,2.004,0.262,3.539,0.394
	c1.535,0.131,3.464,0.187,5.767,0.187c5.73,0,10.243-0.412,13.52-1.255c3.277-0.843,5.767-2.191,7.509-4.063
	C340.949,146.419,342.447,143.722,343.682,140.22z M239.99,88.315c0,0.337-0.037,2.247-0.112,5.749
	c-0.075,3.502-0.131,6.385-0.187,8.651c-0.037,2.247-0.094,4.7-0.169,7.359c-0.056,2.678-0.094,4.194-0.094,4.606
	c0,3.558,0.038,7.471,0.113,11.722c3.183,0.824,6.142,1.236,8.894,1.236c3.033,0,6.104-0.599,9.194-1.779
	c3.09-1.198,5.711-3.239,7.827-6.123c2.116-2.884,3.183-6.666,3.183-11.366c0-3.614-0.787-7.04-2.341-10.261
	c-1.554-3.202-3.951-5.805-7.19-7.808c-3.24-2.003-7.097-2.996-11.572-2.996C245.233,87.304,242.705,87.641,239.99,88.315z
	 M224.373,157.073v-1.685c2.771-0.824,4.606-1.442,5.449-1.854c0.861-0.412,1.367-1.048,1.517-1.928
	c0.524-2.097,0.786-10.561,0.786-25.41c0-2.303,0-4.812-0.019-7.509c-0.019-2.715-0.056-4.812-0.094-6.292
	c-0.037-1.479-0.112-3.763-0.262-6.891c-0.075-2.116-0.187-4.756-0.374-7.921c-0.168-3.165-0.337-5.168-0.506-6.029
	c-0.168-0.861-0.412-1.573-0.749-2.116c-0.506-0.768-1.273-1.292-2.303-1.591c-1.03-0.3-2.51-0.543-4.457-0.768
	c-0.075-0.749-0.075-1.46,0-2.135c2.921,0.15,6.366,0.225,10.317,0.225c1.123,0,3.127-0.075,5.973-0.243l3.464-0.3
	c0.843-0.094,2.003-0.131,3.501-0.131c5.168,0,9.681,0.711,13.557,2.153c3.876,1.423,7.135,3.315,9.737,5.674
	c2.621,2.378,4.55,4.906,5.823,7.583c1.255,2.696,1.891,5.337,1.891,7.902c0,3.951-1.199,7.677-3.614,11.16
	c-2.415,3.483-5.992,6.292-10.711,8.464c-4.719,2.153-10.28,3.24-16.684,3.24c-2.453,0-4.812-0.187-7.078-0.562
	c0.037,2.846,0.094,6.198,0.131,10.018c0.037,3.839,0.074,6.142,0.131,6.947c0.131,2.21,0.412,3.783,0.843,4.738
	c0.431,0.936,1.348,1.629,2.715,2.022c1.367,0.412,3.651,0.693,6.853,0.88l-0.112,2.359c-1.386-0.225-3.258-0.393-5.599-0.487
	c-2.846-0.131-4.812-0.187-5.861-0.187c-4.026,0-7.172,0.225-9.437,0.674l-2.809,0.337
	C225.665,157.41,224.991,157.298,224.373,157.073z M171.65,156.287l-2.247-0.113c0.075-5.074-0.936-11.197-3.034-18.313
	c0.899-0.262,1.498-0.412,1.798-0.449c0.88,2.753,1.573,4.756,2.06,5.992c0.487,1.236,1.123,2.322,1.91,3.258
	c0.787,0.936,1.873,1.779,3.277,2.509c2.378,1.255,5.112,2.378,8.22,3.371c3.108,0.992,6.46,1.498,10.037,1.498
	c3.108,0,6.235-0.768,9.362-2.303c3.127-1.535,4.681-4.924,4.681-10.149c0-2.64-0.449-4.906-1.367-6.797
	c-0.918-1.91-2.116-3.445-3.595-4.625c-1.479-1.161-3.202-2.21-5.168-3.127c-1.948-0.899-4.475-1.947-7.583-3.127
	c-4.325-1.573-7.884-3.183-10.673-4.831c-2.809-1.648-5.019-3.67-6.666-6.086c-1.648-2.415-2.471-5.355-2.471-8.838
	c0-5.524,2.022-10.13,6.086-13.8c4.063-3.689,9.849-5.524,17.377-5.524c3.838,0,7.621,0.412,11.347,1.236
	c1.498,0.3,2.434,0.449,2.79,0.449c1.105,0,2.191-0.374,3.296-1.124l0.449-0.224c0.3,0,0.674,0.075,1.123,0.224
	c-0.112,0.843-0.206,1.667-0.299,2.491c-0.094,0.824-0.187,1.723-0.281,2.715c-0.094,0.993-0.15,1.76-0.187,2.303
	c-0.037,0.543-0.075,0.918-0.113,1.105c0.468,4.419,0.693,6.835,0.656,7.228l-1.685,0.112c-0.3-3.726-1.517-6.647-3.67-8.782
	c-2.154-2.116-4.588-3.576-7.284-4.344c-2.715-0.768-5.299-1.143-7.789-1.143c-6.067,0-10.074,1.573-12.021,4.738
	c-1.966,3.165-2.94,6.142-2.94,8.969c0,2.958,0.73,5.412,2.191,7.359c1.46,1.947,3.296,3.483,5.467,4.588
	c2.172,1.105,5.243,2.415,9.194,3.951c4.457,1.742,8.033,3.352,10.729,4.831c2.696,1.479,5.112,3.633,7.228,6.441
	c2.116,2.809,3.165,6.273,3.165,10.411c0,3.52-0.918,6.704-2.734,9.512c-1.835,2.827-4.569,5.074-8.239,6.722
	c-3.651,1.648-8.127,2.472-13.426,2.472c-5.149,0-10.505-0.749-16.066-2.266c-0.992-0.225-1.591-0.318-1.797-0.318
	C171.799,154.489,171.425,155.088,171.65,156.287z M156.582,140.22h1.685c-0.58,3.802-1.217,6.966-1.929,9.475
	c-0.692,2.49-1.573,4.887-2.678,7.153c-1.198-0.131-2.846-0.243-4.943-0.3c-2.078-0.075-4.999-0.112-8.763-0.112
	c-2.284,0-4.7-0.037-7.302-0.131c-2.603-0.093-3.708-0.131-3.352-0.131c-2.378,0-5.149,0.019-8.314,0.075
	c-3.165,0.037-6.966,0.131-11.441,0.262c-4.457,0.131-7.734,0.244-9.812,0.337l0.112-1.91c1.142-0.262,2.284-0.543,3.464-0.843
	c1.18-0.318,1.966-0.655,2.397-1.011c0.412-0.374,0.712-0.824,0.899-1.348c0.187-0.524,0.374-1.479,0.543-2.865
	c0.225-1.386,0.449-3.895,0.655-7.508c0.206-3.633,0.374-7.696,0.506-12.209c0.131-4.531,0.168-7.34,0.131-8.482l-0.356-17.358
	c-0.094-5.393-0.3-9.044-0.618-10.935c-0.318-1.891-0.918-3.146-1.798-3.764c-0.88-0.637-2.565-1.18-5.037-1.648
	c0-0.599,0.037-1.086,0.112-1.461h35.146c3.951,0,9.906-0.15,17.882-0.449c-0.187,3.146-0.506,6.292-0.974,9.437
	c-0.468,3.146-1.086,4.719-1.816,4.719c-0.918,0-1.367-0.281-1.367-0.824c0-0.225,0.075-0.918,0.224-2.079
	c0.15-1.18,0.206-1.854,0.206-2.023c0-2.677-1.592-4.381-4.793-5.112c-3.202-0.73-7.022-1.086-11.497-1.086
	c-5.374,0-10.973,0.375-16.834,1.123c-0.674,6.067-1.011,11.16-1.011,15.298c0,2.696,0.019,5.805,0.056,9.325
	c0.037,3.502,0.056,5.149,0.056,4.925c0.88,0.075,3.557,0.112,8.07,0.112c7.752,0,13.07-0.15,15.954-0.449
	c1.647-0.169,2.752-0.393,3.333-0.656c0.562-0.243,1.105-0.899,1.611-1.947c0.524-1.049,1.086-2.64,1.704-4.812l1.573,0.112
	c0,3.783,0,7.172-0.019,10.168c-0.019,2.996-0.056,6.423-0.094,10.28h-1.91c-0.113-3.371-0.618-5.711-1.517-7.041
	c-0.88-1.311-2.622-2.153-5.168-2.528c-2.565-0.356-7.116-0.543-13.669-0.543c-4.195,0-7.49,0.187-9.868,0.543l-0.225,7.827
	c-0.262,9.531,0.075,16.89,1.011,22.058c0.655,0.187,1.442,0.374,2.359,0.6c0.918,0.225,1.779,0.393,2.603,0.524
	c0.824,0.131,2.004,0.262,3.539,0.394c1.535,0.131,3.464,0.187,5.767,0.187c5.73,0,10.242-0.412,13.52-1.255
	c3.277-0.843,5.767-2.191,7.509-4.063C153.848,146.419,155.346,143.722,156.582,140.22z"/>
<path fill="#817F59" d="M652.656,196.495c1.404,1.443,3.098,2.164,5.082,2.164c1.971,0,3.652-0.721,5.044-2.164
	c1.404-1.43,2.107-3.15,2.107-5.173v-0.019c0-2.016-0.702-3.736-2.107-5.166c-1.391-1.443-3.072-2.164-5.044-2.164
	c-1.984,0-3.678,0.721-5.082,2.164c-1.404,1.443-2.106,3.169-2.106,5.185C650.549,193.344,651.251,195.065,652.656,196.495
	 M667.98,201.558h-3.092v-2.802c-1.997,1.997-4.38,2.995-7.15,2.995c-2.834,0-5.256-1.018-7.266-3.053
	c-2.01-2.048-3.015-4.509-3.015-7.376c0-2.873,1.005-5.34,3.015-7.389c2.01-2.036,4.432-3.053,7.266-3.053
	c2.77,0,5.153,1.005,7.15,3.015v-2.821h3.092V201.558z M629.672,196.469c1.404,1.436,3.099,2.152,5.083,2.152
	c1.971,0,3.659-0.715,5.063-2.152c1.391-1.449,2.087-3.182,2.087-5.211c0-2.029-0.696-3.762-2.087-5.211
	c-1.404-1.437-3.092-2.152-5.063-2.152c-1.984,0-3.678,0.715-5.083,2.152c-1.404,1.436-2.106,3.169-2.106,5.192v0.019
	C627.566,193.287,628.268,195.019,629.672,196.469z M627.566,183.818c1.997-2.01,4.393-3.015,7.189-3.015
	c2.809,0,5.217,1.024,7.227,3.079c2.01,2.042,3.015,4.503,3.015,7.382c0,2.886-1.005,5.346-3.015,7.388
	c-2.01,2.042-4.419,3.06-7.227,3.06c-2.796,0-5.192-0.998-7.189-2.995v9.913h-3.092v-27.557h3.092V183.818z M617.118,184.835
	c-0.651-0.574-1.424-0.863-2.326-0.863c-0.902,0-1.675,0.29-2.325,0.869c-0.638,0.56-0.96,1.243-0.96,2.049
	c0,0.831,0.283,1.443,0.85,1.849c0.451,0.322,1.398,0.682,2.841,1.069c1.836,0.515,3.143,1.063,3.936,1.643
	c1.359,1.005,2.035,2.448,2.035,4.329c0,1.643-0.625,3.053-1.868,4.219c-1.243,1.166-2.75,1.752-4.509,1.752
	s-3.266-0.586-4.509-1.759c-1.243-1.172-1.868-2.583-1.868-4.232h3.092c0,0.805,0.322,1.488,0.96,2.048
	c0.651,0.567,1.423,0.85,2.325,0.85c0.902,0,1.675-0.284,2.326-0.85c0.637-0.56,0.96-1.249,0.96-2.048
	c0-0.857-0.284-1.481-0.85-1.887c-0.464-0.335-1.424-0.709-2.879-1.108c-1.823-0.502-3.118-1.043-3.897-1.623
	c-1.359-0.992-2.036-2.416-2.036-4.271c0-1.649,0.625-3.06,1.868-4.239c1.243-1.166,2.75-1.752,4.509-1.752s3.266,0.586,4.509,1.752
	c1.243,1.179,1.868,2.596,1.868,4.239h-3.092C618.078,186.072,617.755,185.396,617.118,184.835z M588.459,180.777
	c1.256,0.142,2.268,0.676,3.041,1.604c0.85,1.011,1.198,2.28,1.037,3.813v0.058c-0.251,1.52-0.947,2.654-2.081,3.395
	c-0.49,0.315-1.05,0.541-1.675,0.683c0.805,1.359,1.056,2.912,0.754,4.657c-0.393,2.177-1.494,3.981-3.304,5.398
	c-1.997,1.572-4.367,2.216-7.092,1.926c-2.583-0.277-4.722-1.456-6.416-3.549c-1.688-2.087-2.396-4.425-2.12-7.015
	c0.354-3.221,1.868-5.636,4.548-7.247c-0.863-0.696-1.533-1.565-1.997-2.609c-0.477-1.07-0.657-2.171-0.528-3.298
	c0.187-1.817,0.973-3.292,2.358-4.438c1.372-1.147,2.931-1.623,4.683-1.437c2.287,0.245,4.065,1.494,5.34,3.755l-2.345,1.321
	c-0.818-1.456-1.907-2.261-3.278-2.416c-1.018-0.097-1.926,0.193-2.719,0.87c-0.805,0.683-1.263,1.552-1.378,2.622
	c-0.116,1.024,0.167,1.958,0.85,2.815c0.651,0.87,1.456,1.353,2.415,1.456l0.999,0.109v2.661c-1.662,0.077-3.073,0.696-4.245,1.848
	c-1.172,1.16-1.849,2.583-2.042,4.271c-0.187,1.836,0.335,3.51,1.572,5.037c1.217,1.52,2.744,2.383,4.586,2.583
	c1.997,0.213,3.704-0.226,5.108-1.321c1.288-0.966,2.074-2.242,2.364-3.813c0.122-0.805,0.065-1.552-0.174-2.242
	c-0.374-1.134-1.243-1.868-2.602-2.209h-0.019l-0.077-0.019c-1.127-0.354-1.945-0.509-2.448-0.47h-0.135
	c-0.805-0.013-1.52,0.225-2.151,0.715c-0.702,0.528-1.102,1.205-1.192,2.036c-0.058,0.644,0.103,1.204,0.496,1.681
	c0.399,0.49,0.914,0.766,1.546,0.831c0.631,0.077,1.218-0.071,1.772-0.432c0.554-0.367,0.863-0.818,0.927-1.359l2.66,0.283
	c-0.142,1.256-0.773,2.306-1.907,3.15c-1.121,0.844-2.371,1.186-3.756,1.037c-1.359-0.135-2.467-0.741-3.324-1.81
	c-0.863-1.082-1.224-2.306-1.076-3.665c0.154-1.443,0.805-2.667,1.965-3.659c1.147-1.005,2.48-1.501,4-1.488
	c0.844-0.064,1.984,0.122,3.414,0.561c1.913,0.522,3.305,0.496,4.174-0.071c0.464-0.303,0.76-0.812,0.889-1.533
	c0.071-0.741-0.071-1.333-0.438-1.771c-0.315-0.367-0.734-0.58-1.263-0.644c-0.438-0.045-0.844,0.032-1.211,0.251
	c-0.451,0.296-0.715,0.766-0.792,1.391l-2.68-0.284c0.155-1.365,0.754-2.435,1.797-3.208
	C586.23,180.925,587.286,180.655,588.459,180.777z M550.46,181.074h2.938v3.015h-2.938v17.469h-3.015v-17.469h-2.976v-3.015h2.976
	v-7.073h3.015V181.074z M536.566,184.191c1.797-2.081,3.929-3.118,6.383-3.118h0.187v3.015h-0.187c-1.765,0-3.266,0.702-4.515,2.113
	c-1.243,1.662-1.868,3.492-1.868,5.482v9.875h-3.015v-20.484h3.015V184.191z M515.103,196.495c1.411,1.443,3.105,2.164,5.095,2.164
	c1.978,0,3.665-0.721,5.076-2.164c1.398-1.43,2.094-3.15,2.094-5.173c0-2.016-0.696-3.743-2.094-5.185
	c-1.41-1.443-3.098-2.164-5.076-2.164c-1.99,0-3.685,0.721-5.095,2.164c-1.411,1.443-2.113,3.169-2.113,5.185
	C512.99,193.344,513.692,195.065,515.103,196.495z M512.912,183.933c2.016-2.036,4.438-3.053,7.286-3.053
	c2.815,0,5.237,1.018,7.247,3.053c2.01,2.049,3.015,4.516,3.015,7.389c0,2.866-1.005,5.327-3.015,7.376
	c-2.01,2.035-4.432,3.053-7.247,3.053c-2.847,0-5.269-1.018-7.286-3.053c-2.01-2.048-3.015-4.509-3.015-7.376
	C509.898,188.449,510.903,185.982,512.912,183.933z M503.585,184.835c-0.651-0.574-1.424-0.863-2.326-0.863
	c-0.902,0-1.675,0.29-2.325,0.869c-0.638,0.56-0.96,1.243-0.96,2.049c0,0.831,0.283,1.443,0.85,1.849
	c0.451,0.322,1.398,0.682,2.841,1.069c1.836,0.515,3.143,1.063,3.936,1.643c1.359,1.005,2.036,2.448,2.036,4.329
	c0,1.643-0.625,3.053-1.868,4.219c-1.243,1.166-2.75,1.752-4.509,1.752c-1.759,0-3.266-0.586-4.509-1.759
	c-1.243-1.172-1.868-2.583-1.868-4.232h3.092c0,0.805,0.322,1.488,0.96,2.048c0.651,0.567,1.424,0.85,2.325,0.85
	c0.902,0,1.675-0.284,2.326-0.85c0.637-0.56,0.96-1.249,0.96-2.048c0-0.857-0.284-1.481-0.85-1.887
	c-0.464-0.335-1.424-0.709-2.879-1.108c-1.823-0.502-3.118-1.043-3.897-1.623c-1.359-0.992-2.036-2.416-2.036-4.271
	c0-1.649,0.625-3.06,1.868-4.239c1.243-1.166,2.75-1.752,4.509-1.752c1.759,0,3.266,0.586,4.509,1.752
	c1.243,1.179,1.868,2.596,1.868,4.239h-3.092C504.545,186.072,504.223,185.396,503.585,184.835z M489.188,189.769
	c-0.348-1.662-1.179-3.04-2.487-4.129c-1.327-1.114-2.834-1.668-4.535-1.668c-1.72,0-3.24,0.554-4.567,1.668
	c-1.308,1.089-2.139,2.467-2.487,4.129H489.188z M474.888,183.933c2.01-2.036,4.438-3.053,7.279-3.053
	c2.822,0,5.237,1.018,7.247,3.053c2.003,2.049,3.002,4.509,3.002,7.382v1.546h-17.302c0.348,1.668,1.179,3.047,2.487,4.142
	c1.327,1.102,2.847,1.655,4.567,1.655c1.333,0,2.577-0.354,3.723-1.057c1.127-0.715,2.01-1.688,2.641-2.905l2.75,1.398
	c-0.889,1.745-2.151,3.124-3.788,4.135c-1.623,1.011-3.401,1.52-5.327,1.52c-2.841,0-5.269-1.018-7.279-3.053
	c-2.003-2.048-3.002-4.509-3.002-7.376C471.886,188.449,472.885,185.982,474.888,183.933z M463.532,184.191
	c1.797-2.081,3.929-3.118,6.383-3.118h0.187v3.015h-0.187c-1.765,0-3.266,0.702-4.515,2.113c-1.243,1.662-1.868,3.492-1.868,5.482
	v9.875h-3.015v-20.484h3.015V184.191z"/>
</svg>
